<svg width="100" height="100" viewBox="0 -1.5 19.75 19.75" fill="none" xmlns="http://www.w3.org/2000/svg"><g clip-path="url(#a)"><path d="M.84 6.729a3.136 3.136 0 0 0-.537.253.379.379 0 0 0-.204.279c-.009.109.048.218.169.324.1.082.208.155.323.216.088.05.177.098.266.146.128.068.26.138.383.216 1.669 1.052 3.188 1.984 4.854 2.737-.004.06-.007.12-.012.179a7.705 7.705 0 0 0-.023.514c0 .26-.001.519-.003.779-.004.824-.009 1.676.019 2.514.01.302.118.518.303.608.195.094.446.039.706-.156a4.56 4.56 0 0 0 .294-.242l1.372-1.221.417-.371.009.007.386.334a192.868 192.868 0 0 1 1.335 1.163c.126.111.253.221.381.331.389.336.791.684 1.153 1.057.192.197.378.29.601.29a1.087 1.087 0 0 0 .285-.043c.327-.089.537-.29.683-.65.55-1.357 1.113-2.736 1.657-4.069l1.339-3.285a68.188 68.188 0 0 0 2.484-7.2 5.082 5.082 0 0 0 .176-.868.463.463 0 0 0-.109-.381.497.497 0 0 0-.412-.123 1.433 1.433 0 0 0-.286.065l-.013.004c-.208.063-.418.123-.627.184-.486.141-.988.287-1.475.454A256.514 256.514 0 0 0 6.122 4.672a969.44 969.44 0 0 1-3.05 1.189l-2.233.868Zm6.702 3.714a16.828 16.828 0 0 1 .566-.462 1094.178 1094.178 0 0 1 2.22-1.702 777.708 777.708 0 0 0 4.432-3.411c.45-.35.877-.743 1.29-1.122.142-.13.284-.261.427-.39.114-.103.305-.275.199-.611a.085.085 0 0 0-.044-.05.084.084 0 0 0-.067-.002 3.62 3.62 0 0 1-.128.049 1.827 1.827 0 0 0-.249.107C13.457 4.342 11.081 6.3 8.783 8.194c-.52.428-1.01.87-1.528 1.337a156.059 156.059 0 0 1-.667.598L1.463 7.334a.621.621 0 0 1 .093-.047c.824-.313 1.648-.626 2.472-.941 2.017-.769 4.103-1.565 6.163-2.321a338.535 338.535 0 0 1 5.527-1.958l1.811-.631c.234-.082.47-.146.72-.213l.199-.054c-1.006 3.21-2.289 6.358-3.531 9.404a229.08 229.08 0 0 0-1.957 4.908c-1.713-1.389-3.375-2.857-4.983-4.278a515.458 515.458 0 0 0-.653-.576l.217-.182Zm.952 2.449-1.47 1.254-.117-2.729 1.586 1.475Z" fill="#fff"/></g><defs><clipPath id="a"><path fill="#fff" d="M.259 0h19.625v16.75H.259V0z"/></clipPath></defs></svg>